# xmcd
#
# Track frame offsets:
#       182
#       11895
#       25480
#       38257
#       51217
#       62602
#       75642
#       89615
#       101740
#       116230
#       127142
#       139242
#       159062
#       173000
#       185557
#
# Disc length: 2695 seconds
#
# Revision: 2
# Processed by: cddbd v1.4PL0 Copyright (c) Steve Scherf et al.
# Submitted via: CD-DA_X-Tractor v0.23
#
DISCID=c80a850f
DTITLE=Orquestra Românticos de Cuba - Românticos de Cuba no Cinema
DYEAR=2002
DGENRE=
TTITLE0=Smile/Limelight
TTITLE1=C'est magnifique/With a song in my heart
TTITLE2=Love is a many splendored thing/Unchained melody
TTITLE3=The song from moulin rouge/The last time i saw paris
TTITLE4=Que será, será/Gigi
TTITLE5=Around the world/Tammy
TTITLE6=Spellbound/Invitation
TTITLE7=An affair to remeber/Moonglow
TTITLE8=Manhã de carnaval/Mulher rendeira
TTITLE9=As time goes by/A woman in love
TTITLE10=Three coins in a fountain/Laura
TTITLE11=Colonel bogey/Love me or leave me
TTITLE12=Butterfield/Ruby
TTITLE13=Lolita ya ya/Vera cruz
TTITLE14=Anastacia/Pepe
EXTD=
EXTT0=
EXTT1=
EXTT2=
EXTT3=
EXTT4=
EXTT5=
EXTT6=
EXTT7=
EXTT8=
EXTT9=
EXTT10=
EXTT11=
EXTT12=
EXTT13=
EXTT14=
PLAYORDER=
